<?xml version="1.0" standalone="no"?><!DOCTYPE svg PUBLIC "-//W3C//DTD SVG 1.1//EN" "http://www.w3.org/Graphics/SVG/1.1/DTD/svg11.dtd"><svg t="1732115636669" class="icon" viewBox="0 0 1024 1024" version="1.1" xmlns="http://www.w3.org/2000/svg" p-id="20742" xmlns:xlink="http://www.w3.org/1999/xlink" width="200" height="200"><path d="M512 512m0 512a512 512 0 1 0 0-1024 512 512 0 1 0 0 1024Z" fill="#ffffff" p-id="20743"></path><path d="M386.4576 568.32L386.4576 667.8016a10.5472 10.5472 0 0 1-9.0624 10.496 10.496 10.496 0 0 1-7.8336-2.0992l-199.1168-155.904c-2.56-2.0992-3.9936-5.12-3.9936-8.2944s1.4336-6.1952 3.9936-8.3456l199.0656-155.8528a10.5472 10.5472 0 0 1 17.0496 8.3456l0 99.4304 276.5824 0 0-99.4304a10.5472 10.5472 0 0 1 16.9472-8.3456l199.168 155.8016a10.8032 10.8032 0 0 1 3.9936 8.3456 10.8032 10.8032 0 0 1-4.0448 8.2944l-199.0656 155.9552a10.496 10.496 0 0 1-16.9472-8.3456L663.1936 568.32 386.5088 568.32z" fill="#2c2c2c" p-id="20744" data-spm-anchor-id="a313x.search_index.0.i28.66863a81Mh9zZG" class="selected"></path></svg>